<?xml version="1.0" encoding="utf-8"?>
<!-- Generator: Adobe Illustrator 18.0.0, SVG Export Plug-In . SVG Version: 6.00 Build 0)  -->
<!DOCTYPE svg PUBLIC "-//W3C//DTD SVG 1.1//EN" "http://www.w3.org/Graphics/SVG/1.1/DTD/svg11.dtd">
<svg version="1.1" id="Layer_1" xmlns="http://www.w3.org/2000/svg" xmlns:xlink="http://www.w3.org/1999/xlink" x="0px" y="0px"
	 viewBox="0 0 75.8 74.9" enable-background="new 0 0 75.8 74.9" xml:space="preserve">
<g id="XMLID_1182_">
	<path id="XMLID_1184_" fill="#F4EB26" d="M38.1,73.1L38.1,73.1C18.3,73.1,2.3,57,2.3,37.2v0c0-19.8,16.1-35.9,35.9-35.9h0
		C57.9,1.4,74,17.4,74,37.2v0C74,57,57.9,73.1,38.1,73.1z"/>
	<path id="XMLID_1183_" fill-rule="evenodd" clip-rule="evenodd" fill="#FFFFFF" stroke="#222221" stroke-miterlimit="10" d="
		M58.9,47.6L58.9,47.6C58.9,47.6,58.9,47.6,58.9,47.6C58.9,47.6,58.9,47.6,58.9,47.6L58.9,47.6c-0.6-0.4-1.1-0.4-1.4-0.5
		c0,0,0,0,0,0c-2.2-0.7-4.1-2.2-5.5-4c-0.8-1-1.5-2.1-1.9-3.3c0,0,0,0,0,0c-0.2-0.5-0.2-1.1,0.1-1.4c0,0,0,0,0,0
		c0.4-0.6,1.1-0.9,1.9-1.2c0,0,0,0,0,0c0.9-0.3,1.8-0.6,2.6-1.3c0,0,0,0,0,0c0.1-0.1,0.3-0.3,0.4-0.5c0,0,0-0.1,0.1-0.2
		c0.1-0.2,0.1-0.5,0-0.7c0,0,0,0,0,0c-0.2-0.4-0.6-0.7-0.9-0.9h0c-0.5-0.3-1-0.3-1.5-0.1l0,0h0c-0.5,0.2-1,0.4-1.4,0.4c0,0,0,0,0,0
		c-0.6,0.1-1.1,0.1-1.5,0c0-0.1,0-0.2,0-0.3h0c0-0.9,0-1.9,0.1-2.9c0,0,0,0,0,0c0-1.5,0.1-3.1-0.1-4.7c0,0,0,0,0,0
		c-0.5-2.7-2.2-5-4.4-6.5c-1.6-1.1-3.4-1.7-5.3-1.9l0,0c-0.7-0.1-1.3-0.1-1.9-0.1c-2.6,0-5.2,0.7-7.3,2.3c-1.6,1.2-2.8,2.8-3.6,4.6
		v0c-0.7,1.9-0.7,3.8-0.6,5.7l0,0c0.1,1.3,0.2,2.5,0.1,3.7c0,0,0,0.1,0,0.1c-0.6,0.1-1.2,0.1-1.8,0h0c-0.4-0.1-0.9-0.2-1.4-0.4
		c0,0,0,0,0,0c-0.5-0.1-1,0-1.4,0.3c0,0,0,0,0,0c0,0,0,0,0,0c-0.3,0.2-0.7,0.5-0.8,1.1c0,0,0,0.1,0,0.1c0,0,0,0,0,0
		c0.1,0.3,0.3,0.6,0.5,0.8c0.2,0.2,0.4,0.3,0.5,0.4c0,0,0,0,0,0c0.9,0.6,2,0.9,2.9,1.2l0,0c0.6,0.3,1.2,0.7,1.3,1.2
		c0.2,0.7-0.1,1.5-0.5,2.2v0c-1,2-2.5,3.7-4.4,5c-1,0.7-2.1,1.2-3.2,1.5c0,0,0,0,0,0c-0.2,0.1-0.8,0.1-1.1,0.7c0,0,0,0.1-0.1,0.1
		c-0.1,0.3,0,0.7,0.2,0.9c0.2,0.2,0.3,0.3,0.5,0.4c0,0,0,0,0,0c1,0.6,2,0.8,3,1c0,0,0,0,0,0c0.7,0.1,1.3,0.2,1.9,0.5
		c0,0,0.1,0.2,0.2,0.5c0.2,0.5,0.3,1.1,0.4,1.8c0.1,0.2,0.2,0.3,0.4,0.4c0.4,0.1,0.7,0,0.7-0.1c0,0,0,0,0.1,0
		c1.6-0.3,3.2-0.5,4.7-0.2l0,0c1.5,0.4,2.9,1.5,4.4,2.4v0l0,0c1,0.6,2.2,1.2,3.5,1.3l0,0c0,0,0,0,0,0c1,0.1,2,0,3-0.1c0,0,0,0,0,0
		c0.8-0.1,1.6-0.4,2.3-0.8c0,0,0,0,0,0c1.6-0.9,3-2,4.5-2.7h0c0.5-0.2,1.1-0.2,1.8-0.2c0,0,0,0,0,0c1.3,0,2.6,0,3.8,0.2
		c0,0,0.1,0,0.1,0c0.2,0,0.4-0.1,0.4-0.2c0.1-0.1,0.1-0.2,0.1-0.3c0-0.1,0.1-0.2,0-0.1c0,0,0-0.1,0-0.1c0.2-0.8,0.4-1.5,0.7-1.9
		c0.2-0.2,0.5-0.2,0.8-0.2c0,0,0,0,0.1,0c1.1-0.1,2.1-0.5,3.1-0.9c0,0,0,0,0,0c0.4-0.2,0.9-0.3,1.2-0.8c0,0,0,0,0,0l0,0
		C59.5,48.5,59.3,47.9,58.9,47.6L58.9,47.6z"/>
</g>
</svg>
